<?xml version="1.0" standalone="no"?>
<!DOCTYPE svg PUBLIC "-//W3C//DTD SVG 20010904//EN"
 "http://www.w3.org/TR/2001/REC-SVG-20010904/DTD/svg10.dtd">
<svg version="1.0" xmlns="http://www.w3.org/2000/svg"
 width="260.000000pt" height="260.000000pt" viewBox="0 0 260.000000 260.000000"
 preserveAspectRatio="xMidYMid meet">
<metadata>
Created by potrace 1.11, written by Peter Selinger 2001-2013
</metadata>
<g transform="translate(0.000000,260.000000) scale(0.100000,-0.100000)"
fill="#000000" stroke="none">
<path d="M1750 1788 c-107 -16 -225 -88 -275 -168 -72 -115 -46 -286 57 -375
53 -45 174 -103 311 -149 60 -20 124 -47 143 -59 46 -30 78 -96 69 -144 -15
-82 -69 -119 -179 -122 -143 -5 -227 62 -235 187 -1 9 -31 12 -116 12 l-115 0
0 -45 c0 -54 29 -133 65 -181 118 -155 450 -206 653 -99 116 61 172 156 166
285 -7 153 -102 255 -309 330 -49 18 -115 42 -145 53 -125 45 -181 106 -166
179 15 77 80 119 181 120 105 0 180 -54 192 -139 l5 -41 102 -1 c134 0 134 0
129 52 -17 143 -118 253 -268 292 -73 18 -191 24 -265 13z"/>
<path d="M399 1767 c0 -7 -1 -270 -2 -584 -1 -375 1 -574 8 -576 9 -3 212 -1
225 2 3 0 5 107 5 237 0 149 3 238 10 242 5 4 24 7 40 7 28 0 41 -16 187 -235
87 -129 159 -239 161 -245 4 -10 307 -15 307 -5 0 3 -97 144 -215 313 l-215
308 22 32 c12 18 102 139 200 270 98 131 178 240 178 242 0 2 -65 4 -145 3
l-146 -1 -102 -151 c-56 -83 -128 -191 -160 -239 -55 -83 -60 -88 -90 -85
l-32 3 0 235 0 235 -117 2 c-85 1 -118 -2 -119 -10z"/>
</g>
</svg>
